<svg width="692" height="618" viewBox="0 0 692 618" fill="none" xmlns="http://www.w3.org/2000/svg">
<g clip-path="url(#clip0_1_2)">
<path d="M480 154C480 127.5 458.5 106 432 106H336C309.5 106 288 127.5 288 154V202H224V130C224 116.7 213.3 106 200 106C186.7 106 176 116.7 176 130V202H112V130C112 116.7 101.3 106 88 106C74.7 106 64 116.7 64 130V202H48C21.5 202 0 223.5 0 250V346V570C0 596.5 21.5 618 48 618H304H336H432H592C618.5 618 640 596.5 640 570V346C640 319.5 618.5 298 592 298H480V154ZM576 474V506C576 514.8 568.8 522 560 522H528C519.2 522 512 514.8 512 506V474C512 465.2 519.2 458 528 458H560C568.8 458 576 465.2 576 474ZM240 522H208C199.2 522 192 514.8 192 506V474C192 465.2 199.2 458 208 458H240C248.8 458 256 465.2 256 474V506C256 514.8 248.8 522 240 522ZM128 506C128 514.8 120.8 522 112 522H80C71.2 522 64 514.8 64 506V474C64 465.2 71.2 458 80 458H112C120.8 458 128 465.2 128 474V506ZM560 362C568.8 362 576 369.2 576 378V410C576 418.8 568.8 426 560 426H528C519.2 426 512 418.8 512 410V378C512 369.2 519.2 362 528 362H560ZM256 282V314C256 322.8 248.8 330 240 330H208C199.2 330 192 322.8 192 314V282C192 273.2 199.2 266 208 266H240C248.8 266 256 273.2 256 282ZM112 266C120.8 266 128 273.2 128 282V314C128 322.8 120.8 330 112 330H80C71.2 330 64 322.8 64 314V282C64 273.2 71.2 266 80 266H112ZM256 410C256 418.8 248.8 426 240 426H208C199.2 426 192 418.8 192 410V378C192 369.2 199.2 362 208 362H240C248.8 362 256 369.2 256 378V410ZM112 426H80C71.2 426 64 418.8 64 410V378C64 369.2 71.2 362 80 362H112C120.8 362 128 369.2 128 378V410C128 418.8 120.8 426 112 426ZM416 378V410C416 418.8 408.8 426 400 426H368C359.2 426 352 418.8 352 410V378C352 369.2 359.2 362 368 362H400C408.8 362 416 369.2 416 378ZM400 170C408.8 170 416 177.2 416 186V218C416 226.8 408.8 234 400 234H368C359.2 234 352 226.8 352 218V186C352 177.2 359.2 170 368 170H400ZM416 282V314C416 322.8 408.8 330 400 330H368C359.2 330 352 322.8 352 314V282C352 273.2 359.2 266 368 266H400C408.8 266 416 273.2 416 282Z" fill="#4B727A"/>
<g clip-path="url(#clip1_1_2)">
<path d="M540.5 259C624.18 259 692 205.177 692 138.75C692 72.3234 624.18 18.5 540.5 18.5C456.82 18.5 389 72.3234 389 138.75C389 164.823 399.475 188.931 417.229 208.645C416.104 222.809 410.482 235.413 404.564 245.009C401.309 250.328 397.995 254.606 395.569 257.497C394.326 258.942 393.379 260.041 392.669 260.792C392.314 261.139 392.077 261.428 391.9 261.602L391.722 261.775C389 264.434 388.231 268.366 389.71 271.834C391.19 275.303 394.622 277.558 398.469 277.558C415.453 277.558 432.556 272.413 446.759 266.4C460.312 260.619 471.852 253.739 478.894 248.709C497.713 255.358 518.544 259.058 540.5 259.058V259ZM464.75 157.25C454.275 157.25 445.812 148.983 445.812 138.75C445.812 128.517 454.275 120.25 464.75 120.25C475.225 120.25 483.687 128.517 483.687 138.75C483.687 148.983 475.225 157.25 464.75 157.25ZM540.5 157.25C530.025 157.25 521.562 148.983 521.562 138.75C521.562 128.517 530.025 120.25 540.5 120.25C550.975 120.25 559.437 128.517 559.437 138.75C559.437 148.983 550.975 157.25 540.5 157.25ZM635.187 138.75C635.187 148.983 626.725 157.25 616.25 157.25C605.775 157.25 597.312 148.983 597.312 138.75C597.312 128.517 605.775 120.25 616.25 120.25C626.725 120.25 635.187 128.517 635.187 138.75Z" fill="#E65252"/>
</g>
</g>
<defs>
<clipPath id="clip0_1_2">
<rect width="692" height="618" fill="white"/>
</clipPath>
<clipPath id="clip1_1_2">
<rect width="303" height="296" fill="white" transform="translate(389)"/>
</clipPath>
</defs>
</svg>
