<svg width="688" height="612" viewBox="0 0 688 612" fill="none" xmlns="http://www.w3.org/2000/svg">
<path d="M547.6 203.8L490.3 113.1C485.2 105 476.1 100 466.4 100H109.6C99.9 100 90.8 105 85.7 113.1L28.3 203.8C-1.30001 250.6 24.9 315.7 80.2 323.2C84.2 323.7 88.3 324 92.3 324C118.4 324 141.6 312.6 157.5 295C173.4 312.6 196.6 324 222.7 324C248.8 324 272 312.6 287.9 295C303.8 312.6 327 324 353.1 324C379.3 324 402.4 312.6 418.3 295C434.3 312.6 457.4 324 483.5 324C487.6 324 491.6 323.7 495.6 323.2C551.1 315.8 577.4 250.7 547.7 203.8H547.6ZM499.7 354.9H499.6C494.3 355.6 488.9 356 483.4 356C471 356 459.1 354.1 448 350.7V484H128V350.6C116.8 354.1 104.8 356 92.4 356C86.9 356 81.4 355.6 76.1 354.9H76C71.9 354.3 67.9 353.6 64 352.6V484V548C64 583.3 92.7 612 128 612H448C483.3 612 512 583.3 512 548V484V352.6C508 353.6 504 354.4 499.7 354.9Z" fill="#4B727A"/>
<g clip-path="url(#clip0_1_4)">
<path d="M514.5 259C598.18 259 666 205.177 666 138.75C666 72.3234 598.18 18.5 514.5 18.5C430.82 18.5 363 72.3234 363 138.75C363 164.823 373.475 188.931 391.229 208.645C390.104 222.809 384.482 235.413 378.564 245.009C375.309 250.328 371.995 254.606 369.569 257.497C368.326 258.942 367.379 260.041 366.669 260.792C366.314 261.139 366.077 261.428 365.9 261.602L365.722 261.775C363 264.434 362.231 268.366 363.71 271.834C365.19 275.303 368.622 277.558 372.469 277.558C389.453 277.558 406.556 272.413 420.759 266.4C434.312 260.619 445.852 253.739 452.894 248.709C471.713 255.358 492.544 259.058 514.5 259.058V259ZM438.75 157.25C428.275 157.25 419.812 148.983 419.812 138.75C419.812 128.517 428.275 120.25 438.75 120.25C449.225 120.25 457.687 128.517 457.687 138.75C457.687 148.983 449.225 157.25 438.75 157.25ZM514.5 157.25C504.025 157.25 495.562 148.983 495.562 138.75C495.562 128.517 504.025 120.25 514.5 120.25C524.975 120.25 533.437 128.517 533.437 138.75C533.437 148.983 524.975 157.25 514.5 157.25ZM609.187 138.75C609.187 148.983 600.725 157.25 590.25 157.25C579.775 157.25 571.312 148.983 571.312 138.75C571.312 128.517 579.775 120.25 590.25 120.25C600.725 120.25 609.187 128.517 609.187 138.75Z" fill="#E65252"/>
</g>
<defs>
<clipPath id="clip0_1_4">
<rect width="303" height="296" fill="white" transform="translate(363)"/>
</clipPath>
</defs>
</svg>
